<svg xmlns="http://www.w3.org/2000/svg" viewBox="0 0 1080 389.53"><defs><style>.cls-1{fill:#f4f4f2;}</style></defs><title>Asset 8</title><g id="Layer_2" data-name="Layer 2"><g id="Layer_1-2" data-name="Layer 1"><path class="cls-1" d="M235.18,107.45V0H44.09V44.09H0V188.27l176.37,88.19v54.27H58.81V311.52L0,282.09V389.53H191.09V345.44h44.09V201.26L58.81,113.07V58.81H176.37V78ZM176.37,374.82H14.72V305.89l29.37,14.66v24.89H176.37Zm0-114.75L14.72,179.19V58.81H44.09V166.26l132.28,66.11Zm44.1-49.72V330.73H191.09V223.28L58.81,157.17v-27.7ZM58.81,44.09V14.72H220.47V83.64L191.09,69V44.09Z"/><path class="cls-1" d="M366.08,280a72.6,72.6,0,0,1-28.92-5.76,67.75,67.75,0,0,1-23.05-16.07,65.6,65.6,0,0,1-14.3-24l25.27-10.86q6,14.19,17.29,22.27a42.66,42.66,0,0,0,25.48,8.09,34.76,34.76,0,0,0,13.85-2.54,21.45,21.45,0,0,0,9.09-7A17.63,17.63,0,0,0,394,233.44a16.89,16.89,0,0,0-4.32-12q-4.32-4.65-13-7.54L345,203.74q-19.27-6-29.14-17.84T306,157.64a44.75,44.75,0,0,1,7.09-25,47.7,47.7,0,0,1,19.62-16.95q12.51-6.11,28.69-6.1a69.81,69.81,0,0,1,27.26,5.21,64.28,64.28,0,0,1,21.39,14.4,59,59,0,0,1,13.4,21.61l-25,11.08a39.87,39.87,0,0,0-14.51-19,38.44,38.44,0,0,0-22.5-6.88,32.72,32.72,0,0,0-13.29,2.55,20.89,20.89,0,0,0-9,7.2,18.31,18.31,0,0,0-3.21,10.65,18,18,0,0,0,4.43,12.07q4.42,5.22,13.52,8.09L384.25,186q19.72,6.44,29.59,17.73t9.86,27.92a43.76,43.76,0,0,1-7.32,25,49.73,49.73,0,0,1-20.16,17.06Q383.35,280,366.08,280Z"/><path class="cls-1" d="M551.18,114.89h-39L455.19,280h32.63l12-35.21h63.8L575.31,280h32.81ZM508.41,217.94l23.25-69.35,23.05,69.35Z"/><path class="cls-1" d="M639.62,280V114.88H670V253.39h70.7V280Z"/><path class="cls-1" d="M772.17,280V114.88H882.09v26.59H802.53V183.8h79.56v26.81H802.53v42.78h79.56V280Z"/><polygon class="cls-1" points="1080 114.89 1080 279.98 1049.64 279.98 1049.64 167.74 998.68 235.63 995.09 235.63 943.95 165.78 943.95 279.98 913.59 279.98 913.59 114.89 942.56 114.89 997.49 189.4 1051.15 114.89 1080 114.89"/></g></g></svg>