<svg xmlns="http://www.w3.org/2000/svg" viewBox="0 0 19.32 32"><defs><style>.cls-1{fill:#820d00;}</style></defs><title>Asset 19</title><g id="Layer_2" data-name="Layer 2"><g id="Layer_1-2" data-name="Layer 1"><path class="cls-1" d="M19.32,8.83,14.49,6.41V4.83H3.62V0h15.7ZM15.7,5.66l2.41,1.21V1.21H4.83V3.62H15.7Z"/><path class="cls-1" d="M15.7,32H0V23.17l4.83,2.42v1.58H15.7ZM1.21,30.79H14.49V28.38H3.62v-2L1.21,25.13Z"/><path class="cls-1" d="M19.32,28.38H14.49V19.09L3.62,13.66v-5l15.7,7.85ZM15.7,27.17h2.41V17.28L4.83,10.64v2.27L15.7,18.34Z"/><path class="cls-1" d="M15.7,23.32,0,15.47V3.62H4.83v9.29L15.7,18.34ZM1.21,14.72l13.28,6.64V19.09L3.62,13.66V4.83H1.21Z"/></g></g></svg>